<?xml version="1.0" standalone="no"?>
<!DOCTYPE svg PUBLIC "-//W3C//DTD SVG 1.1//EN" "http://www.w3.org/Graphics/SVG/1.1/DTD/svg11.dtd" >
<svg xmlns="http://www.w3.org/2000/svg">
<metadata></metadata>
<defs>
<font id="narwhalbold" horiz-adv-x="1705" >
<font-face units-per-em="2048" ascent="1536" descent="-512" />
<missing-glyph horiz-adv-x="614" />
<glyph horiz-adv-x="2048" />
<glyph horiz-adv-x="2048" />
<glyph unicode="&#xd;" horiz-adv-x="1024" />
<glyph unicode=" "  horiz-adv-x="614" />
<glyph unicode="&#x09;" horiz-adv-x="614" />
<glyph unicode="&#xa0;" horiz-adv-x="614" />
<glyph unicode="!" horiz-adv-x="309" d="M84 1401h131l-12 -1116h-109zM88 63q0 27 19.5 45.5t44.5 18.5q29 0 47 -18.5t18 -45.5t-18.5 -46t-46.5 -19q-25 0 -44.5 19.5t-19.5 45.5z" />
<glyph unicode="&#x22;" horiz-adv-x="714" d="M92 1163v240h221v-213l-82 -154l-61 17l2 110h-80zM399 1165v240h224v-213l-82 -154l-64 17l2 110h-80z" />
<glyph unicode="#" d="M190 309v111h222v563h-222v109h222v311h106v-311h612v311h109v-311h211v-109h-211v-563h211v-111h-211v-311h-109v311h-612v-311h-106v311h-222zM518 420h612v563h-612v-563z" />
<glyph unicode="$" horiz-adv-x="1372" d="M203 485h104q0 -70 25.5 -127t75.5 -94q51 -39 116.5 -60.5t137.5 -21.5t136 21.5t117 60.5q47 37 73 84t26 101q0 53 -20.5 97t-55.5 79q-20 16 -48 29.5t-63 25.5h2q-70 25 -172 31q-31 2 -68.5 7t-75.5 16t-72.5 27.5t-61.5 45.5q-53 53 -66.5 110.5t-13.5 110.5 q0 61 24.5 116.5t71.5 96.5t107.5 63.5t130.5 26.5q152 6 246 -53q49 -29 82.5 -85t48.5 -134l-107 -4q-8 47 -27.5 81.5t-50.5 53.5q-35 20 -82 30.5t-106 6.5q-106 -6 -174 -62q-59 -55 -60 -137q0 -45 8.5 -81t39.5 -66q47 -49 215 -66q53 -4 102 -13t94 -22 q41 -14 76 -34.5t66 -43.5q115 -98 114 -253q0 -78 -37 -147t-104 -122q-63 -49 -144 -75.5t-171 -26.5q-92 0 -173 26.5t-145 75.5q-68 53 -104.5 133t-36.5 172zM621 -4v1413h108v-1413h-108z" />
<glyph unicode="%" d="M127 0l1243 1407h143l-1243 -1407h-143zM428 1135q0 82 70 139q68 55 155 55q43 -2 83 -15.5t71 -39.5q31 -27 50.5 -65t19.5 -76q0 -41 -18.5 -78t-51.5 -66q-66 -53 -154 -53h-2q-45 0 -84 14.5t-71 38.5q-68 57 -68 146zM537 1135q0 -39 30 -60v2q18 -14 40 -23.5 t46 -9.5q47 0 82 27t35 62q0 29 -31 57q-35 29 -86 29q-47 0 -80.5 -25t-35.5 -59zM770 285q0 86 72 141q31 27 71.5 40t81.5 13q88 0 156 -55t68 -141q0 -84 -70 -142q-66 -53 -154 -53h-4q-90 4 -151 53q-35 29 -52.5 66t-17.5 78zM877 285q0 -33 28 -58q41 -31 90 -30 q47 0 81 25.5t34 60.5q0 33 -31 57q-35 31 -84 31t-82.5 -26t-35.5 -60z" />
<glyph unicode="&#x26;" d="M250 412q6 109 69 202q31 45 66 78t72 56.5t75.5 40t79.5 30.5q-27 41 -48 85t-36 85q-33 100 -14 180q20 106 115 183q41 35 92 50t108 7q100 -12 179 -88q35 -35 58.5 -78t27.5 -92q8 -53 -7.5 -107.5t-48.5 -105.5q-57 -72 -116.5 -111t-126.5 -65q43 -53 109.5 -132 t142.5 -169l45 -53q37 78 61.5 162.5t36.5 140.5l106 -23q-6 -35 -17 -78t-26.5 -92t-36 -100t-49.5 -99q31 -37 69 -80.5t75 -89t69.5 -84t55.5 -65.5h-146l-12 16q-4 6 -8 13.5t-8 11.5l-158 186l-6 -8q-41 -51 -86 -92t-94 -70q-117 -63 -248 -63q-57 0 -114.5 17.5 t-109.5 47.5q-49 29 -89 72t-62 88q-20 45 -33.5 95.5t-11.5 97.5zM358 395q0 -63 33 -127q18 -35 46 -65.5t65 -52.5q78 -47 168 -48q109 0 192 52q41 23 79 57.5t73 75.5l18 26l-67 80l-281 334q-80 -27 -150.5 -61.5t-123.5 -112.5q-51 -76 -52 -158zM618 1110 q0 -43 13 -88q12 -39 35.5 -83t54.5 -87q66 23 123 55.5t106 98.5q43 57 37 131q-10 63 -55 108q-23 23 -52.5 36t-60.5 19h-10q-4 0 -7 1.5t-7 1.5q-51 0 -99 -35h2q-80 -66 -80 -158z" />
<glyph unicode="'" horiz-adv-x="307" d="M33 1163v240h221v-213l-82 -154l-61 17l2 110h-80z" />
<glyph unicode="(" horiz-adv-x="716" d="M25 662q0 96 17 189t52 185q35 96 95.5 191.5t142.5 193.5l78 -78q-72 -80 -124.5 -169t-86.5 -175q-31 -84 -48.5 -169t-17.5 -168q0 -174 64 -316q31 -76 84 -144.5t127 -133.5l-41 -54l-56 -4q-68 59 -123 133t-90 160q-35 84 -54 174t-19 185z" />
<glyph unicode=")" horiz-adv-x="710" d="M113 59q72 80 124 169t87 175q31 84 48 169t17 169q0 168 -65 316q-31 78 -84.5 146.5t-124.5 131.5l41 54l55 6q68 -59 123 -134t92 -161q35 -84 53.5 -174t18.5 -185q0 -193 -70 -374q-70 -184 -238 -383z" />
<glyph unicode="*" horiz-adv-x="409" d="M-37 784l158 158l-156 154h154l22 -23v55h111v-55l22 23h154l-156 -154l158 -158h-151l-27 27v-55h-111v55l-26 -27h-152z" />
<glyph unicode="+" horiz-adv-x="714" d="M70 530v109h548v-109h-548zM301 311v547h109v-547h-109z" />
<glyph unicode="," horiz-adv-x="409" d="M51 0v242h223v-213l-81 -154l-64 14l2 111h-80z" />
<glyph unicode="-" horiz-adv-x="614" d="M20 522v107h549v-107h-549z" />
<glyph unicode="." horiz-adv-x="409" d="M129 0v141h137v-141h-137z" />
<glyph unicode="/" d="M127 -2l1243 1407h143l-1243 -1407h-143z" />
<glyph unicode="0" d="M262 705q0 139 44 272t116 237q39 51 83 92.5t93 67.5v-2q106 63 225 64q119 0 221 -64v2q49 -27 93.5 -67.5t83.5 -92.5q72 -104 115.5 -237t43.5 -272q0 -141 -44 -275.5t-115 -236.5q-39 -53 -83 -94.5t-94 -67.5v2q-102 -64 -221 -64t-225 64v-2q-49 27 -93 67.5 t-83 94.5q-72 102 -116 236t-44 276zM373 705q0 -129 34.5 -244t96 -199t143.5 -133t176 -49q92 0 173 49t142.5 133t96.5 198.5t35 244.5q0 129 -35 241.5t-96.5 196.5t-142.5 133t-173 49q-94 0 -176 -49t-143.5 -133t-96 -196.5t-34.5 -241.5z" />
<glyph unicode="1" horiz-adv-x="960" d="M250 1108l409 350v-1456h-108v1221l-234 -201z" />
<glyph unicode="2" d="M184 0l162 100q2 0 72.5 45t177 115t230.5 152t233 159q45 31 77.5 72t51.5 76q14 37 22.5 81t8.5 99q0 168 -117 285q-57 57 -131 86.5t-156 29.5q-72 0 -139.5 -23.5t-120.5 -70.5t-90 -116.5t-51 -155.5h-113q18 111 65.5 203t116.5 151q145 121 332 121 q102 0 195.5 -39t167.5 -110q72 -72 110.5 -165.5t38.5 -195.5q0 -66 -12 -121t-31 -102q-45 -109 -160 -193q-176 -123 -322.5 -220t-236.5 -154h793v-109h-1174z" />
<glyph unicode="3" d="M272 487h111q12 -82 50 -153.5t96.5 -123.5t132 -82t157.5 -30q86 0 166 31t143 90v-2q61 59 95 134t34 159q0 68 -22.5 129t-64.5 113.5t-99 91.5t-125 59l-69 27l227 364h-789v109l977 2l-256 -420q74 -31 134.5 -79t103.5 -110.5t66.5 -135t23.5 -150.5 q0 -104 -40 -199.5t-118 -169.5t-177 -112.5t-210 -38.5q-104 0 -200.5 36.5t-172.5 104.5q-70 63 -115.5 154.5t-58.5 201.5z" />
<glyph unicode="4" d="M219 403l430 998h117l-383 -887h805v887h110v-887h107v-111h-107v-411h-110v411h-969z" />
<glyph unicode="5" d="M283 250h145q20 -23 33.5 -35t23.5 -22q27 -23 58.5 -40.5t66.5 -31.5q37 -12 75 -19.5t75 -7.5q88 0 168 34t141 99q59 66 93 148t34 176q0 92 -34 174t-93 147q-61 66 -141 100t-168 34q-98 0 -187.5 -45.5t-160.5 -131.5h-86l-2 580h995v-109h-887v-294 q141 109 328 108q111 0 209 -42t176 -122q78 -82 120 -184t42 -215q0 -115 -42 -217.5t-120 -183.5q-78 -80 -176.5 -122t-208.5 -42q-51 0 -96.5 7t-90.5 23q-41 16 -80.5 38t-76.5 55q-23 18 -58.5 57t-74.5 84z" />
<glyph unicode="6" d="M350 387q0 113 68 209v-2l559 809h129l-436 -637q70 20 153 20q92 0 178 -29.5t154 -86.5v2q68 -55 103.5 -130t33.5 -157q0 -86 -36.5 -159.5t-102.5 -127.5v2q-70 -55 -155 -84.5t-179 -29.5q-92 2 -178 31.5t-152 84.5q-68 57 -104.5 130t-34.5 155zM459 387 q0 -55 26.5 -108.5t73.5 -94.5q51 -41 121 -65.5t143 -24.5q150 0 258 90v-2q51 41 77 93.5t26 109.5q0 55 -27 108.5t-74 94.5q-53 43 -120.5 66.5t-141.5 23.5q-72 0 -140.5 -23.5t-119.5 -64.5l-10 -8q-14 -10 -27 -27l-18 -23q-23 -33 -35 -70.5t-12 -74.5z" />
<glyph unicode="7" d="M178 1292v109h1315l-518 -879h127v-110h-195q-59 -102 -120.5 -207t-120.5 -205h-129l243 412h-125v110h191q61 102 116.5 196.5t110.5 186.5t110.5 187.5t116.5 199.5h-1122z" />
<glyph unicode="8" d="M285 412q0 182 131 288q29 23 64.5 42.5t76.5 35.5q-41 20 -68 47v-2q-61 59 -77.5 122t-16.5 126q0 72 31 134.5t84 107.5q53 43 125 68.5t153 29.5h62q82 -4 153.5 -29.5t126.5 -68.5q53 -45 83 -107.5t30 -134.5q0 -63 -15.5 -125.5t-74.5 -122.5q-37 -31 -74 -47 q88 -33 146 -78l-2 2q135 -109 135 -288q0 -86 -43 -162t-123 -135q-76 -57 -171.5 -87t-199.5 -30q-106 0 -202.5 29.5t-172.5 87.5q-80 59 -120.5 135t-40.5 162zM391 412q0 -119 121 -211q59 -45 139 -70t170 -25q86 0 166 25t141 70q119 90 119 211q0 129 -92 204l2 -2 q-51 41 -135 66q-43 16 -94 24.5t-109 14.5q-57 -6 -109.5 -14.5t-93.5 -24.5q-82 -23 -133 -64q-43 -37 -67.5 -88t-24.5 -116zM504 1071q0 -49 11 -91t48 -77q31 -31 93.5 -50t164.5 -26q188 12 256 76q37 35 47.5 77t10.5 91q0 98 -79 161.5t-208 70.5h-55 q-129 -6 -209 -70t-80 -162z" />
<glyph unicode="9" d="M305 1001q0 174 158 297q72 57 165 87t193 30t194.5 -29.5t166.5 -87.5q155 -121 155 -297q0 -131 -90 -233q-145 -186 -295.5 -385t-296.5 -385h-141l473 610q-41 -10 -83 -15t-83 -5q-102 0 -194 29.5t-164 87.5q-78 59 -118 134.5t-40 161.5zM414 1001 q0 -63 31.5 -118.5t87 -96.5t130 -64.5t158.5 -23.5q104 0 190.5 34t141.5 93l8 9q70 76 70 167q0 61 -33 118t-88 97.5t-130 65.5t-159 25t-158.5 -25t-130 -65.5t-87 -97t-31.5 -118.5z" />
<glyph unicode=":" horiz-adv-x="409" d="M129 0v141h137v-141h-137zM129 551v143h137v-143h-137z" />
<glyph unicode=";" horiz-adv-x="409" d="M129 0v141h137v-116l-114 -134v109h-23zM129 553v143h137v-143h-137z" />
<glyph unicode="&#x3c;" d="M506 653l508 525h151l-508 -525l519 -512h-154z" />
<glyph unicode="=" d="M545 438v109h549v-109h-549zM549 635v108h549v-108h-549z" />
<glyph unicode="&#x3e;" d="M467 1124h154l516 -512l-508 -524h-152l508 524z" />
<glyph unicode="?" d="M303 1098q63 133 131 200q74 76 167 114t198 38q104 0 197 -38t167 -114q72 -74 111 -167t39 -195q0 -104 -39 -197.5t-111 -167.5q-66 -63 -144.5 -101t-166.5 -46v-227h-109v331h56q82 0 155.5 31t130.5 88q59 59 89 133t30 156q0 168 -119 287q-57 57 -130.5 87.5 t-155.5 30.5q-84 0 -158 -30.5t-131 -87.5q-23 -23 -43.5 -54.5t-40.5 -70.5h-123zM727 70q0 29 20.5 48t47.5 19q29 0 49 -19t20 -48t-20.5 -49.5t-48.5 -20.5q-27 0 -47.5 20.5t-20.5 49.5z" />
<glyph unicode="@" d="M223 573v48q0 57 8.5 114.5t24.5 112.5l4 18q35 96 92 172q29 37 63 71t74 62h-2q164 117 365 111q143 -8 256 -62.5t186 -142.5q31 -41 55.5 -91t41.5 -107v-2q16 -53 22 -111.5t6 -122.5q0 -16 -3 -51t-14 -77t-32.5 -88t-60.5 -83q-82 -84 -228 -84q-27 2 -51 12.5 t-45 32.5q-68 -55 -162 -55q-29 0 -53 6h2h-4q-2 0 -4 2q-47 10 -85 35.5t-67 62.5q-63 82 -63 213q0 47 5 86t15 74q25 80 72 117q35 29 82 43t104 8q31 -4 67 -15.5t69 -37.5q2 8 6 20q2 4 2 8l135 -26q-10 -12 -19 -21q-18 -18 -22 -18q-4 -16 -12.5 -70.5t-12.5 -113.5 q-2 -25 -3 -45.5t-1 -40.5q0 -72 9.5 -108t19.5 -50q8 -8 27 -8q92 0 141 51q8 6 21.5 22.5t25.5 43t21.5 65.5t9.5 92q0 115 -25 205q-12 45 -31.5 86t-48.5 76q-113 150 -358 159q-82 4 -158 -18.5t-141 -67.5h2q-33 -23 -61.5 -50t-51.5 -60q-49 -68 -73 -141l-7 -19v2 q-14 -47 -20 -96t-6 -100v-37t4 -39q6 -109 65 -199q25 -39 59 -74.5t75 -64.5h-3q76 -53 175.5 -79t203.5 -15l4 -109q-31 -4 -46 -5t-29 -1q-94 0 -190.5 30.5t-180.5 90.5q-47 37 -88 79t-72 93q-74 115 -82 239q-4 18 -4 43zM659 569q0 -90 39 -147q16 -20 39 -35.5 t49 -19.5l2 -2q43 -10 85 5t65 44q-8 27 -10 58.5t-2 66.5q0 20 1 43.5t3 46.5q0 10 2 21.5t2 19.5q0 4 1 6t-1 6q0 2 -3 16.5t-15.5 33t-36 34.5t-62.5 22q-35 4 -61.5 -2t-42.5 -22q-53 -47 -54 -195zM1014 788q0 -2 4 -6l2 -2z" />
<glyph unicode="A" horiz-adv-x="1613" d="M117 -2l674 1499l661 -1497h-119l-172 389h-745l-176 -391h-123zM465 500h647q-43 98 -82 186t-78 174t-78.5 176t-85.5 191z" />
<glyph unicode="B" horiz-adv-x="1452" d="M135 0v1436l504 2q100 0 199 -29q45 -16 85 -35.5t70 -46.5q139 -111 140 -280q0 -82 -36 -155t-106 -128l-26 -21l12 -4q47 -14 87 -32t69 -45q70 -53 106.5 -126t36.5 -153t-37 -150.5t-106 -123.5q-33 -25 -72 -44.5t-82 -35.5q-96 -29 -201 -29h-643zM246 113h532 q86 0 160 21.5t127 62.5q100 76 100 186q0 113 -100 188q-111 86 -285 86h-534v-544zM246 766h393q176 0 287 86h-2q49 39 74.5 89t25.5 106q0 115 -100 190h2q-111 88 -287 88h-393v-559z" />
<glyph unicode="C" horiz-adv-x="1548" d="M137 719q0 147 47 280.5t138 237.5q47 53 97 92t105 68q125 57 250 57q199 0 352 -121q78 -57 141.5 -154.5t110.5 -217.5h-118q-37 94 -86.5 164.5t-114.5 117.5q-129 100 -285 100q-100 0 -196.5 -48t-169.5 -130q-76 -92 -115 -200q-20 -59 -31.5 -121t-11.5 -125 t11 -125t32 -121q39 -109 115 -201q74 -84 170 -132t196 -48q78 0 154 27.5t141 79.5h-2q131 106 201 297h118q-43 -123 -108.5 -222.5t-142.5 -160.5h2q-160 -131 -363 -131q-66 0 -128 15t-122 44q-55 29 -105 67.5t-97 92.5q-90 104 -137.5 237t-47.5 281z" />
<glyph unicode="D" horiz-adv-x="1458" d="M135 0v1436h58q23 0 79 1t113 1q92 0 157.5 -1t100.5 -5q127 -12 248 -74t207 -158q88 -100 136 -228t48 -270q0 -141 -47 -270t-137 -227q-90 -94 -207 -148q-59 -27 -122.5 -41t-129.5 -16h-504zM248 111h147q72 0 139.5 1t104.5 1q109 0 205 43t170 125 q78 84 117.5 191.5t39.5 229.5q0 121 -39.5 230.5t-117.5 195.5q-72 86 -171.5 134.5t-209.5 58.5h2q-33 2 -95.5 3t-154.5 1h-137v-1214z" />
<glyph unicode="E" horiz-adv-x="1470" d="M135 -2v1444h1159v-113h-1046v-690h575v-111h-575v-417h1046v-113h-1159z" />
<glyph unicode="F" horiz-adv-x="1470" d="M135 -2v1440h1159v-113h-1046v-690h567v-111h-567v-526h-113z" />
<glyph unicode="G" horiz-adv-x="1574" d="M137 721q0 145 49.5 278.5t137.5 237.5q43 53 94 93t108 69q125 57 252 57q197 0 352 -121q78 -59 143.5 -155.5t112.5 -214.5h-120q-74 184 -201 280q-129 100 -287 101q-102 0 -199.5 -48.5t-170.5 -132.5q-76 -88 -115 -198q-20 -59 -31.5 -121t-11.5 -125t11 -124.5 t32 -121.5q39 -109 115 -201q74 -84 171 -132t199 -48q123 0 221.5 37t163.5 102q111 113 119 293h-553v113l666 -2v-53q0 -141 -39 -246q-37 -106 -115 -180q-84 -86 -203 -130t-260 -44q-66 0 -129 15t-123 44q-57 29 -108 69t-94 91q-88 104 -137.5 237t-49.5 281z" />
<glyph unicode="H" horiz-adv-x="1345" d="M135 -2v1440h111v-797h819v797h111v-1440h-111v530h-819v-530h-111z" />
<glyph unicode="I" horiz-adv-x="364" d="M123 0v1430h110v-1430h-110z" />
<glyph unicode="J" horiz-adv-x="1314" d="M133 532h111q0 -100 29.5 -183t86.5 -140q117 -117 279 -117q78 0 150.5 30t130.5 87q53 57 83.5 130t30.5 155v942h111v-942q0 -102 -38 -195.5t-110 -167.5q-72 -72 -164 -110.5t-194 -38.5q-100 0 -192.5 38.5t-165.5 110.5q-72 74 -110 177.5t-38 223.5z" />
<glyph unicode="K" horiz-adv-x="1394" d="M135 0v1436h111v-760q217 190 437 380.5t437 379.5h166l-690 -602q74 -100 153.5 -206t160.5 -213.5t160 -213t153 -203.5h-138l-573 764l-266 -232v-530h-111z" />
<glyph unicode="L" horiz-adv-x="1478" d="M137 0v1434h111v-1323h1055v-111h-1166z" />
<glyph unicode="M" horiz-adv-x="1591" d="M137 -2v1538l635 -1071q74 123 156 261t166 277.5t164.5 275.5t152.5 255v-1536h-111v1135q-63 -104 -130.5 -218t-136 -229t-135.5 -226.5t-126 -211.5l-524 885v-1135h-111z" />
<glyph unicode="N" horiz-adv-x="1476" d="M135 -2v1503l1055 -1265v1202h110v-1508l-1054 1266v-1198h-111z" />
<glyph unicode="O" horiz-adv-x="1613" d="M137 721q0 154 49 289q23 66 59 124t79 111q94 106 204 164q59 29 125 44t131 15q66 0 131.5 -15t124.5 -44q113 -57 205 -164q45 -53 81 -111.5t58 -123.5q25 -68 36.5 -140.5t11.5 -148.5t-11.5 -148.5t-36.5 -140.5q-23 -66 -58.5 -124t-80.5 -111t-97 -94.5 t-108 -69.5q-59 -29 -124.5 -44.5t-131.5 -15.5t-131 15.5t-125 44.5q-53 29 -105 69.5t-99 94.5q-43 53 -79 111.5t-59 123.5q-49 135 -49 289zM248 721q0 -125 45 -250q39 -121 117 -203q35 -43 80 -77.5t90 -59.5q47 -23 99 -35t105 -12q113 0 207 47q98 51 170 137 q74 82 117 203q43 119 43 250q0 129 -43 250q-43 119 -117 203q-35 41 -80 75.5t-90 59.5q-47 25 -100.5 37t-106.5 12t-105 -11.5t-99 -37.5q-47 -25 -91.5 -57.5t-78.5 -77.5q-78 -84 -117 -203q-45 -125 -45 -250z" />
<glyph unicode="P" horiz-adv-x="1468" d="M135 -2v1434h653q57 0 142.5 -23t169.5 -78l2 -2q33 -23 66.5 -55.5t61 -76.5t45 -100.5t17.5 -125.5q0 -70 -17.5 -125t-44 -98t-59 -75t-65.5 -55q-78 -53 -158 -75.5t-133 -22.5h-254h-163.5h-97.5h-54v-522h-111zM246 631h569q43 0 105.5 17.5t123.5 58.5h-2 q63 45 97 106q23 35 33 75t10 83q0 51 -13.5 93t-35 74.5t-47 57.5t-50.5 41q-66 47 -134 64.5t-114 17.5h-542v-688z" />
<glyph unicode="Q" horiz-adv-x="1613" d="M137 729q0 154 49 289q23 63 59 122.5t79 112.5q47 53 98 93t106 69q61 29 126 45.5t130 16.5q68 0 131.5 -16.5t124.5 -45.5q119 -57 205 -162q92 -109 139 -235q25 -68 36.5 -140.5t11.5 -148.5q0 -78 -11.5 -149.5t-36.5 -139.5q-23 -66 -58.5 -125t-80.5 -112 l-63 -68q16 -18 37.5 -40.5t42 -44t38 -41t29.5 -32.5h-153l-84 93q-16 -10 -27.5 -16.5t-24.5 -12.5q-125 -59 -256 -59q-66 0 -131 15t-125 44q-53 29 -105 69t-99 93q-43 53 -79 112.5t-59 124.5q-49 135 -49 289zM248 729q0 -66 11 -128t34 -122q39 -119 117 -205 q35 -41 80 -75.5t90 -59.5q47 -23 99 -36t105 -13q109 0 207 49q6 4 13.5 7.5t13.5 7.5l-338 372h154l272 -305q16 10 28.5 24.5t24.5 28.5q76 90 119 205q43 117 43 250q0 129 -43 250q-23 59 -51.5 110.5t-65.5 92.5t-80 75.5t-90 57.5q-102 51 -207 51q-106 0 -204 -51 q-96 -47 -170 -133q-76 -82 -117 -203q-45 -125 -45 -250z" />
<glyph unicode="R" horiz-adv-x="1445" d="M135 0v1436h656q59 0 141 -21.5t160 -77.5h-2q31 -23 63.5 -54.5t58 -75.5t43 -99t17.5 -123q0 -242 -172 -358q-113 -72 -279 -84h2q-20 -4 -37 -4l496 -539h-149l-498 535q-72 -2 -145.5 -3.5t-137.5 -1.5q-33 0 -58.5 1t-47.5 1v-532h-111zM246 643h119.5t160.5 1 t162 3t125 6q66 6 124 23.5t99 44.5q59 41 92 108.5t33 155.5q0 84 -39 158q-33 57 -96 104h2q-57 37 -125 62h2q-29 6 -57.5 11t-56.5 5h-545v-682z" />
<glyph unicode="S" horiz-adv-x="1372" d="M135 451h111q0 -78 30.5 -145.5t85.5 -112.5q61 -47 140.5 -73t165.5 -26t163.5 24.5t139.5 74.5q57 45 88 101t31 118q0 137 -91 215q-25 20 -57.5 37.5t-75.5 29.5q-86 29 -202 39q-37 2 -81 8.5t-89 18.5t-86 31.5t-72 50.5q-59 61 -74.5 127.5t-15.5 130.5 q0 150 114 248q53 45 125 72.5t150 31.5h20q159 0 267 -61q59 -35 97 -97.5t54 -142.5l-110 -23q-10 59 -37 102.5t-62 65.5q-41 23 -99 35q-50 10 -105 10h-19q-63 -4 -116.5 -23.5t-92.5 -51.5q-76 -66 -76 -166q0 -53 11.5 -97.5t48.5 -80.5q61 -66 258 -80h-2 q66 -4 123 -14.5t106 -26.5q102 -37 170 -90q129 -111 129 -299q0 -86 -42 -166t-120 -142q-76 -59 -171 -89.5t-199 -30.5t-199.5 30.5t-171.5 89.5q-78 61 -120 150.5t-42 196.5z" />
<glyph unicode="T" horiz-adv-x="1366" d="M137 1325v111h1166v-111h-527v-1327h-112v1327h-527z" />
<glyph unicode="U" horiz-adv-x="1492" d="M137 498v938h111v-938q0 -90 39 -160q43 -74 110 -131h-2q72 -53 157 -83t175 -30q88 0 174 30t156 83h-2q76 59 112 131l-2 -2q41 72 41 162v938h111v-938q0 -109 -50 -206t-143 -171q-84 -66 -187.5 -101.5t-209.5 -35.5q-111 0 -213 35.5t-188 101.5 q-90 72 -139.5 169t-49.5 208z" />
<glyph unicode="V" horiz-adv-x="1611" d="M119 1438h121l540 -1221q135 301 274.5 611.5t272.5 609.5h125l-672 -1495z" />
<glyph unicode="W" horiz-adv-x="2263" d="M127 1434h121l502 -1215q72 168 141.5 334t140.5 334l-229 547h117l172 -410l172 410h118l-229 -547q39 -92 71.5 -173t65.5 -160t67 -161t73 -174q129 299 262 607.5t262 607.5h121l-645 -1491l-340 805l-342 -807z" />
<glyph unicode="X" horiz-adv-x="1650" d="M92 -2l635 707q-74 86 -153.5 179t-160.5 188t-160 188.5t-151 177.5h148l553 -647l555 647h147l-628 -733q74 -82 155.5 -172.5t165.5 -182.5t165 -182l153 -170h-152l-561 625l-561 -625h-150z" />
<glyph unicode="Y" horiz-adv-x="1648" d="M106 1438h134l563 -877q139 217 281.5 438.5t279.5 438.5h135l-639 -994v-444h-112v444q-76 117 -158 243t-165 254t-164 254t-155 243z" />
<glyph unicode="Z" horiz-adv-x="1607" d="M96 0l1024 1325h-981v111h1204l-1019 -1325h1101v-111h-1329z" />
<glyph unicode="\" d="M117 1192v145l1407 -1245v-143z" />
<glyph unicode="^" d="M236 535v206l385 654l395 -643v-203l-393 641z" />
<glyph unicode="_" horiz-adv-x="1228" d="M84 0v111h1016v-111h-1016z" />
<glyph unicode="a" horiz-adv-x="1613" d="M123 -2l659 1468l648 -1466h-117l-168 381h-729l-174 -383h-119zM465 489h633q-43 94 -81 181.5t-76 171.5t-78 172t-83 186z" />
<glyph unicode="b" horiz-adv-x="1452" d="M141 0v1405l492 2q53 0 100 -7t94 -22q88 -29 154 -80q66 -53 101.5 -122.5t35.5 -151.5q0 -80 -37 -151.5t-102 -124.5l-27 -19l13 -4q45 -16 83.5 -34.5t69.5 -43.5h-2q137 -111 141 -272q0 -78 -36.5 -146.5t-104.5 -122.5q-66 -51 -151 -77q-92 -29 -195 -29h-629z M248 111h522q86 0 157 21.5t124 60.5q96 74 96 182q0 113 -96 184q-53 41 -124 62.5t-155 21.5h-524v-532zM248 750h385q86 0 156.5 21.5t123.5 62.5q96 78 97 190q0 53 -25 102t-72 86q-106 84 -280 84h-385v-546z" />
<glyph unicode="c" horiz-adv-x="1548" d="M143 705q0 143 46.5 273t134.5 232q45 51 95 90t103 68q59 27 119.5 41t124.5 14q94 0 181 -29.5t165 -88.5q74 -55 137.5 -151.5t108.5 -213.5h-117q-72 188 -197 277q-61 49 -132.5 74.5t-145.5 25.5q-98 0 -192.5 -48t-167.5 -130q-70 -82 -111 -195 q-20 -59 -31.5 -119.5t-11.5 -119.5q0 -61 11 -122t32 -120q41 -113 111 -195q74 -82 168 -130t192 -48q78 0 150.5 27.5t138.5 77.5h-2q63 53 112 123.5t84 166.5h117q-43 -123 -105.5 -219t-140.5 -155q-155 -127 -354 -127q-63 0 -123.5 14t-120.5 41q-53 29 -103 67.5 t-95 90.5q-88 102 -134.5 232t-46.5 276z" />
<glyph unicode="d" horiz-adv-x="1458" d="M141 0v1405h56q20 0 75.5 1t112.5 1q90 0 153.5 -1t98.5 -5q123 -12 240.5 -72.5t203.5 -152.5q86 -98 134.5 -224.5t48.5 -263.5q0 -141 -47.5 -266t-135.5 -221q-43 -45 -92 -81t-108 -63t-122 -41t-126 -16h-492zM250 109h145q68 0 134.5 1t103.5 1q106 0 200.5 42 t165.5 121q76 82 116 187.5t40 226.5q0 117 -40 224.5t-116 193.5q-72 84 -167 131t-203 55h2q-35 2 -94.5 3t-151.5 1h-135v-1187z" />
<glyph unicode="e" horiz-adv-x="1470" d="M141 -2v1413h1135v-111h-1024v-673h563v-109h-563v-409h1024v-111h-1135z" />
<glyph unicode="f" horiz-adv-x="1470" d="M141 -2v1409h1135v-111h-1024v-673h553v-109h-553v-516h-111z" />
<glyph unicode="g" horiz-adv-x="1574" d="M143 705q0 143 48.5 273t134.5 234q41 49 92 89t106 69q59 27 121 41t125 14q94 0 182 -29.5t164 -88.5q76 -57 139.5 -151.5t110.5 -211.5h-119q-72 180 -196 275q-125 100 -281 100q-100 0 -195.5 -48t-168.5 -130q-70 -82 -111 -195q-20 -59 -31.5 -119.5 t-11.5 -121.5q0 -59 11 -120t32 -120q39 -111 111 -197q74 -80 169 -128t195 -48q119 0 216 36t163 101q106 109 115 287h-543v111l653 -2v-54q0 -139 -39 -241q-18 -49 -44.5 -93t-65.5 -83q-82 -84 -199 -126t-256 -42q-63 0 -124.5 14t-121.5 41q-55 29 -106 69t-92 89 q-86 104 -134.5 234t-48.5 272z" />
<glyph unicode="h" horiz-adv-x="1345" d="M139 -2v1409h109v-780h801v780h108v-1409h-108v520h-801v-520h-109z" />
<glyph unicode="i" horiz-adv-x="364" d="M121 0v1411h110v-1411h-110z" />
<glyph unicode="j" horiz-adv-x="1314" d="M137 522h109q0 -98 29.5 -180t84.5 -137q115 -115 273 -115q78 0 147.5 30t124.5 85q115 115 115 278v922h108v-922q0 -100 -36.5 -191t-108.5 -163t-162 -109.5t-188 -37.5t-188.5 37.5t-161.5 109.5q-72 72 -109 173t-37 220z" />
<glyph unicode="k" horiz-adv-x="1394" d="M141 0v1405h109v-743q213 186 427 373.5t427 371.5h164l-678 -592q74 -98 151.5 -201.5t156.5 -208t157 -208t149 -199.5h-135l-561 747l-258 -225v-520h-109z" />
<glyph unicode="l" horiz-adv-x="1478" d="M141 0v1403h111v-1294h1030v-109h-1141z" />
<glyph unicode="m" horiz-adv-x="1591" d="M143 -2v1505l621 -1048q72 121 152.5 256t162.5 271t161 269t149 250v-1503h-109v1112q-61 -104 -128 -215t-133.5 -223.5t-132 -221t-122.5 -206.5l-512 866v-1112h-109z" />
<glyph unicode="n" horiz-adv-x="1476" d="M141 -2v1472l1033 -1239v1176h106v-1475l-1030 1237v-1171h-109z" />
<glyph unicode="o" horiz-adv-x="1531" d="M104 705q0 76 11.5 146.5t36.5 135.5q23 66 57.5 123t77.5 109q43 53 95 93t105 66q59 29 122 44.5t128 15.5q66 0 128.5 -15.5t121.5 -44.5q111 -53 203 -159q41 -51 75.5 -108.5t57.5 -123.5q25 -66 36 -136.5t11 -145.5q0 -74 -11 -145t-36 -138q-23 -63 -57.5 -120.5 t-75.5 -108.5q-92 -106 -203 -160q-59 -29 -121.5 -44.5t-128.5 -15.5t-128 15.5t-122 44.5q-53 27 -105 66.5t-95 93.5q-43 51 -78 108t-57 121q-25 68 -36.5 138.5t-11.5 144.5zM213 705q0 -127 43 -244q41 -119 115 -199q35 -41 78 -74.5t88 -58.5q94 -47 200 -47 q53 0 103.5 11t97.5 36t90 57.5t78 75.5q72 82 113 199q23 59 34 120.5t11 123.5q0 63 -11.5 124.5t-33.5 120.5q-41 117 -113 199q-35 41 -79 74.5t-89 58.5q-45 23 -97.5 35t-103.5 12q-109 0 -200 -47q-98 -51 -166 -133q-74 -80 -115 -199q-43 -117 -43 -245z" />
<glyph unicode="p" horiz-adv-x="1468" d="M141 -2v1403h639q55 0 138 -22.5t165 -75.5l2 -3q33 -23 66 -54.5t60.5 -74.5t45 -98t17.5 -123t-17.5 -122t-43 -96t-58.5 -73.5t-63 -54.5q-76 -53 -156 -74.5t-129 -21.5h-250h-159.5h-95.5h-52v-510h-109zM250 618h557q41 0 102.5 16.5t120.5 57.5h-2q59 41 94 105 q43 68 43 153q0 51 -13 91t-33.5 73t-46 56.5t-50.5 39.5q-66 45 -132.5 63.5t-109.5 18.5h-530v-674z" />
<glyph unicode="q" horiz-adv-x="1613" d="M143 713q0 152 47 282q47 127 136 232q45 53 95 92t105 67q59 29 122 44.5t128 15.5q66 0 129.5 -15.5t122.5 -44.5q55 -29 105.5 -67.5t95.5 -91.5q88 -104 135 -232q47 -131 47 -282q0 -145 -47 -283q-23 -63 -57.5 -120.5t-77.5 -110.5l-64 -66q16 -18 37 -40.5 t41.5 -44t37.5 -40t30 -31.5h-152l-82 91q-16 -10 -27.5 -16.5t-21.5 -12.5q-125 -57 -252 -57q-63 0 -126.5 15t-123.5 42q-111 57 -200 160q-43 53 -78 110.5t-58 120.5q-47 137 -47 283zM252 713q0 -127 43 -244q39 -117 115 -201q35 -41 78.5 -74.5t86.5 -56.5 q94 -47 201 -47q111 0 203 47q6 4 13 6t14 7l-332 366h151l267 -299q29 23 51 51q76 88 117 201q20 59 31.5 119.5t11.5 124.5q0 63 -11.5 124.5t-31.5 120.5q-39 113 -115 199q-72 84 -166 131q-47 23 -98.5 36t-104.5 13t-103 -13t-98 -36q-94 -47 -165 -131 q-76 -86 -115 -199q-43 -117 -43 -245z" />
<glyph unicode="r" horiz-adv-x="1445" d="M141 0v1405h641q57 0 137 -21.5t156 -74.5h-2q31 -23 62.5 -53.5t57.5 -73.5t42 -97.5t16 -121.5q0 -238 -168 -349q-108 -72 -270 -84q-20 -4 -35 -4l486 -526h-148l-485 524q-72 -2 -144.5 -3t-134.5 -1q-33 0 -58.5 1t-43.5 1v-522h-109zM250 629h117.5t155.5 1t158 3 t122 6q66 6 122 23.5t97 42.5q57 41 90 106.5t33 151.5q0 84 -39 155q-33 55 -94 103h2q-27 16 -57.5 32.5t-65.5 26.5h2q-59 16 -111 16h-532v-667z" />
<glyph unicode="s" horiz-adv-x="1372" d="M139 442h109q0 -78 30.5 -144.5t83.5 -109.5q59 -45 136 -70.5t164 -25.5q84 0 159.5 24.5t134.5 71.5q117 88 117 215q0 135 -88 209q-25 20 -56.5 38t-72.5 28q-45 16 -94 25.5t-105 13.5q-37 2 -79.5 8t-87 18.5t-84 32t-70.5 49.5q-59 59 -73.5 124t-14.5 128 q0 70 28.5 132.5t81.5 109.5q53 43 124 70.5t147 31.5h20q155 0 260 -59q57 -35 95 -96.5t53 -139.5l-109 -22q-10 59 -35.5 101t-58.5 63q-40 23 -98 36q-44 10 -92 10q-15 0 -29 -1q-125 -6 -205 -74q-74 -66 -74 -162q0 -53 11.5 -96t46.5 -78q59 -66 252 -78h-2 q129 -10 227 -43q96 -35 164 -86q127 -106 127 -293q0 -86 -41 -163.5t-119 -137.5q-72 -59 -166 -87.5t-194 -28.5q-104 0 -197.5 28.5t-165.5 87.5q-78 59 -119 147.5t-41 192.5z" />
<glyph unicode="t" horiz-adv-x="1366" d="M141 1296v109h1141v-109h-516v-1298h-109v1298h-516z" />
<glyph unicode="u" horiz-adv-x="1492" d="M141 487v918h109v-918q0 -88 39 -157q37 -68 108 -127h-2q70 -53 154 -82t170 -29t170 29t153 82h-2q35 29 64 60.5t47 66.5l-2 -2q39 70 39 159v918h108v-918q0 -106 -48 -201.5t-140 -168.5q-82 -61 -183.5 -96t-205.5 -35q-106 0 -206.5 33.5t-184.5 97.5 q-90 72 -138.5 168t-48.5 202z" />
<glyph unicode="v" horiz-adv-x="1611" d="M125 1407h117l530 -1194q131 293 268.5 597t268.5 597h121l-658 -1464z" />
<glyph unicode="w" horiz-adv-x="2263" d="M137 1436h117l491 -1188q70 164 137.5 325.5t139.5 327.5l-223 535h112l170 -400l168 400h117l-225 -535q37 -90 69.5 -169t64.5 -156.5t64.5 -157.5t71.5 -170q125 293 256 594t258 594h117l-631 -1461l-332 789l-336 -791z" />
<glyph unicode="x" horiz-adv-x="1650" d="M98 -2l623 692q-72 82 -150.5 174t-157.5 185.5t-157 184.5t-147 173h143l543 -633l542 633h144l-615 -717q72 -80 153 -169t163 -179t160.5 -177t150.5 -167h-147l-551 610l-549 -610h-148z" />
<glyph unicode="y" horiz-adv-x="1648" d="M113 1407h131l551 -856q135 211 275 428t276 428h129l-625 -973v-434h-111v434q-74 115 -153.5 238t-160.5 249t-160 248.5t-152 237.5z" />
<glyph unicode="z" horiz-adv-x="1607" d="M102 0l1002 1296h-959v109h1180l-999 -1296h1077v-109h-1301z" />
<glyph unicode="|" horiz-adv-x="307" d="M94 0v1411h111v-1411h-111z" />
<glyph unicode="&#xad;" horiz-adv-x="614" d="M20 522v107h549v-107h-549z" />
<glyph unicode="&#x2000;" horiz-adv-x="768" />
<glyph unicode="&#x2001;" horiz-adv-x="1536" />
<glyph unicode="&#x2002;" horiz-adv-x="768" />
<glyph unicode="&#x2003;" horiz-adv-x="1536" />
<glyph unicode="&#x2004;" horiz-adv-x="512" />
<glyph unicode="&#x2005;" horiz-adv-x="384" />
<glyph unicode="&#x2006;" horiz-adv-x="256" />
<glyph unicode="&#x2007;" horiz-adv-x="256" />
<glyph unicode="&#x2008;" horiz-adv-x="192" />
<glyph unicode="&#x2009;" horiz-adv-x="307" />
<glyph unicode="&#x200a;" horiz-adv-x="85" />
<glyph unicode="&#x2010;" horiz-adv-x="614" d="M20 522v107h549v-107h-549z" />
<glyph unicode="&#x2011;" horiz-adv-x="614" d="M20 522v107h549v-107h-549z" />
<glyph unicode="&#x2012;" horiz-adv-x="614" d="M20 522v107h549v-107h-549z" />
<glyph unicode="&#x2013;" horiz-adv-x="1089" d="M20 522v107h1024v-107h-1024z" />
<glyph unicode="&#x2014;" horiz-adv-x="2113" d="M20 522v107h2048v-107h-2048z" />
<glyph unicode="&#x2018;" horiz-adv-x="305" d="M37 1036v211l80 154l63 -15l-2 -110h80v-240h-221z" />
<glyph unicode="&#x2019;" horiz-adv-x="307" d="M37 1163v240h221v-213l-82 -154l-61 17v110h-78z" />
<glyph unicode="&#x201c;" horiz-adv-x="716" d="M92 1061v213l82 153l64 -16l-2 -111h79v-239h-223zM401 1063v213l82 154l62 -17l-2 -110h80v-240h-222z" />
<glyph unicode="&#x201d;" horiz-adv-x="655" d="M61 1163v240h222v-213l-82 -154l-62 17l2 110h-80zM369 1165v240h223v-213l-82 -154l-64 17l3 110h-80z" />
<glyph unicode="&#x202f;" horiz-adv-x="307" />
<glyph unicode="&#x205f;" horiz-adv-x="384" />
<glyph unicode="&#xe000;" horiz-adv-x="1402" d="M0 0v1403h1403v-1403h-1403z" />
</font>
</defs>
</svg>
